<?xml version="1.0" encoding="utf-8"?>
<!-- Generator: Adobe Illustrator 18.0.0, SVG Export Plug-In . SVG Version: 6.00 Build 0)  -->
<!DOCTYPE svg PUBLIC "-//W3C//DTD SVG 1.1//EN" "http://www.w3.org/Graphics/SVG/1.1/DTD/svg11.dtd">
<svg version="1.1" id="Layer_1" xmlns="http://www.w3.org/2000/svg" xmlns:xlink="http://www.w3.org/1999/xlink" x="0px" y="0px"
	 viewBox="0 0 1322.3 270.2" enable-background="new 0 0 1322.3 270.2" xml:space="preserve">
<g>
	<path fill="#050505" d="M1073.6,0.1c6.6-0.2,13.3-0.1,19.9,0c0.2,68.7,0,137.3,0.1,206c0.1,9.9-0.8,20.3,2.9,29.7
		c1.6,4.4,5.5,7.4,9.4,9.8c-2.3,5.6-4.6,11.3-7.4,16.7c-9.5-4-17.2-11.8-20.8-21.5c-4.9-11.6-4-24.4-4-36.7
		C1073.5,136.1,1073.5,68.1,1073.6,0.1L1073.6,0.1z"/>
	<path fill="#050505" d="M217.7,14.5c7.5-2.6,16.5,2.6,17.7,10.5c1.5,7.8-5.1,16.1-13.1,15.8c-7.4,0.3-14.3-6.3-13.8-13.8
		C208.7,21.6,212.5,16.4,217.7,14.5L217.7,14.5z"/>
	<path fill="#050505" d="M991.7,14.5c7.5-2.6,16.5,2.6,17.7,10.5c1.5,7.8-5.1,16.1-13.1,15.8c-7.4,0.3-14.3-6.3-13.8-13.8
		C982.7,21.6,986.5,16.4,991.7,14.5L991.7,14.5z"/>
	<path fill="#050505" d="M0.1,25.1c56-0.1,112.1-0.1,168.1,0c0.1,5.6,0.1,11.3,0,16.9c-24.6,0.1-49.3-0.1-73.9,0.1
		c-0.1,72,0,143.9-0.1,215.9c-6.6,0.1-13.3,0.1-19.9,0c-0.1-72,0-143.9-0.1-215.9C49.6,41.9,24.9,42.2,0.2,42
		C-0.1,36.4-0.1,30.7,0.1,25.1L0.1,25.1z"/>
	<path fill="#050505" d="M299.1,25.1c6.6-0.1,13.3-0.1,19.9,0c0.1,15.3-0.2,30.6,0.1,45.8c18.9,0.3,37.8-0.2,56.7,0.2
		c0,5.6,0,11.1,0,16.7c-18.9,0.4-37.8,0-56.7,0.2c-0.3,41,0,81.9-0.1,122.9c-0.2,7.9,1.7,16.1,7.1,22.1c6,6.7,15.2,10,24.1,9.7
		c10.5,0.3,20.8-2.5,30.2-7c2.6,5.2,4.7,10.6,6.7,16c-14.7,7.8-31.9,9.6-48.3,7.5c-13.3-1.8-25.8-9.5-32.8-21.1
		c-5.3-8.4-7.3-18.4-7.1-28.2C299.1,148.4,298.9,86.7,299.1,25.1L299.1,25.1z"/>
	<path fill="#050505" d="M814.8,30.5c3.7-4,9.2-5.7,14.5-5.5c39.6,0.1,79.2-0.1,118.8,0.1c0,5.6,0,11.2,0,16.8
		c-37.6,0.3-75.2-0.1-112.8,0.1c-3.5-0.3-7.1,2.3-6.9,5.9c-0.1,26-0.1,52,0,78c33,0.1,65.9,0,98.9,0.1c0.1,5.6,0.1,11.3,0,16.9
		c-33,0.1-65.9,0-98.9,0.1c-0.1,38.3,0,76.6-0.1,114.9c-6.6,0.1-13.2,0.1-19.7-0.1c0-69.7,0-139.3,0-209
		C808.6,42.4,810.2,35.5,814.8,30.5L814.8,30.5z"/>
	<path fill="#40AD48" d="M1214.3,53c10.8-2.1,21.9-0.6,32.6,1.4c24,5.7,43.3,23.9,54.7,45.3c4,9.7,6.2,20.7,3.5,31.1
		c-3.2,16-13.1,30.4-26.4,39.7c-8.4,5.1-19.2,6.3-28.3,2.5c-5.9-2.3-11.1-6-16.1-9.9c-1.4-0.9-1.9-2.4-2.5-3.9
		c6.5,1.8,12.5,5.7,19.5,6c6.8,0.7,14.5,0.4,20.1-4.1c6.9-4.7,10.5-12.7,12.5-20.5c1.8-11.1-0.6-22.4-4.2-33
		c-7.5-19.6-27.9-31.6-48.2-33.3c-18.5,0.3-37.9,4.4-52.6,16.2c-7.3,5-13.5,11.4-18.2,18.9c-6.8,8.7-9.4,19.8-10.3,30.6
		c0.1,8.5-0.9,17.3,1.3,25.6c1.9,7.6,3.6,15.5,7.7,22.4c5.2,8.2,10.4,16.7,18.1,22.9c6,6,13.4,10.3,21.6,12.4
		c19.7,6.2,41.5,7.5,61.2,0.8c11.4-3.4,21.2-10.4,30.7-17.3c14.3-11.6,26.5-27.7,28.6-46.4c0.2-1.6,0.7-3.5,2.6-3.6
		c0.2,12.5-2.8,25-7.7,36.5c-5.6,14.2-15.1,26.6-26.7,36.4c-14.5,12-32.5,19.2-50.8,23c5.2,3.7,11.6,5.3,16.7,9.3
		c-8.2,2.1-16.9,2.6-25.3,1.1c-19.7-1.7-38.5-9.3-55-20c2.3,9.2,5.6,18.2,10.9,26.1c-0.5,0.3-1.5,0.9-2,1.2
		c-7.9-6.9-14.6-14.9-21.2-23c-5.1-7-10.7-13.6-14.7-21.3c-12.3-21.2-20.7-45.2-20.1-69.9c-0.4-8.6,1.1-17,2.6-25.4
		c3.1-13.2,9.7-25.4,17.6-36.3c3.8-5.4,8.9-9.8,13.5-14.5c8.3-8.2,18.4-14.2,28.7-19.4C1196.6,56.2,1205.6,54.6,1214.3,53L1214.3,53
		z"/>
	<path fill="#050505" d="M632.9,86.6C646,74.2,664.7,69.7,682.3,70c17.4-0.4,35.2,5.1,48.5,16.5c11.3,9.7,18.4,23.7,20.8,38.3
		c1.8,10,1,20.1,1.2,30.2c-0.1,34.3,0.2,68.7-0.1,103c-6.6,0-13.3,0.2-19.9-0.1c0.1-39.3,0-78.5,0-117.8
		c-0.2-15.5-4.9-32.1-17.3-42.2c-12-10.1-28.9-12.1-43.9-9.7c-12.5,2.1-24.2,9.4-30.8,20.3c-5.6,9.1-7.8,20-8.1,30.6
		c-0.1,39.6,0.1,79.3-0.1,119c-6.6,0.1-13.3,0.1-19.9,0c0-40.3,0-80.6,0-121C612.6,118.5,619.1,99.4,632.9,86.6L632.9,86.6z"/>
	<path fill="#050505" d="M212.1,71.1c6.6-0.1,13.3-0.1,19.9,0c0,48.6,0,97.3,0,145.9c0.1,6.7,0.5,13.6,3.4,19.8c1.8,4,5.5,6.4,9,8.7
		c-2,5.8-4.9,11.2-7.5,16.7c-9.3-3.6-16.7-11.2-20.5-20.3c-3.7-8.4-4.6-17.7-4.5-26.8C212.1,167.1,211.9,119.1,212.1,71.1
		L212.1,71.1z"/>
	<path fill="#050505" d="M986.1,71.1c6.6-0.1,13.3-0.1,19.9,0c0,48.6,0,97.3,0,145.9c0.1,6.7,0.5,13.6,3.4,19.8c1.8,4,5.6,6.4,9,8.7
		c-2,5.8-4.9,11.2-7.5,16.7c-9.1-3.5-16.3-10.9-20.2-19.7C987,234.2,986,225,986,216C986.1,167.7,985.9,119.4,986.1,71.1L986.1,71.1
		z"/>
	<path fill="#40AD48" d="M1217.7,106.4c0.8-1.5,2-2.7,3.2-3.8c2,6.4,0.9,13.2,1.9,19.8c0.5,3.7,0.5,7.5,0.6,11.3
		c5,1.8,10.3,2.6,15.5,3.7c4.7,1.3,9.5,2.5,14.4,2.9c-0.1,0.6-0.2,1.8-0.2,2.4c-9.1,4.2-18.4,8.2-27.8,11.6
		c-0.5,5.6,0.9,11.1,1,16.7c0,5.2,1.3,10.3,0.9,15.5c-3.3-1.7-5.4-4.8-7.8-7.6c-4.5-5.1-9-10.3-13.3-15.7
		c-8.1,3.3-16.2,6.8-24.2,10.4c-1.9,0.8-3.9,1.2-5.9,1.6c5.2-9.2,11.1-18.1,16.3-27.3c-5.2-7.7-12-14-17.6-21.4
		c-0.8-1.1-1.3-2.4-1.8-3.6c10.5,1.4,20.5,5.5,31.1,6.1C1208.3,121.4,1213.4,114.2,1217.7,106.4L1217.7,106.4z"/>
	<path fill="#050505" d="M560.6,178c0-15.7,0-31.3,0-47c-0.2-16.2-5.8-33.1-18.4-43.8c-15.5-13.5-36.9-17.3-56.9-17.2
		c-19.5-0.5-39.3,4.4-55.6,15.2c2.1,5.9,4.9,11.6,7.7,17.2c4.9-2.9,9.4-6.5,14.5-8.9c9.7-4.9,20.7-6.3,31.4-6.2
		c11.9-0.1,24.3,1.3,35,6.8c8.4,4.2,15.2,11.6,18.6,20.4c5.5,13.7,3.3,28.7,3.6,43c-4.5-0.4-9.1-1.1-13.5-1.9
		c-19.1-3-38.5-4.5-57.7-3c-14.9,1.4-30.6,6-41.2,17.1c-8.2,8.6-11.7,20.6-12.3,32.2c-0.6,14.2,2.5,29.5,12.6,40.1
		c10.9,11.6,27.1,16.2,42.6,17.6c13.4,1,27,0.5,40.4-1.6c8-1.3,15.8-4.1,22.7-8.3c13.5-8.4,22.5-23.2,25.1-38.8
		C561.1,200.1,560.5,189,560.6,178z M540.5,196c-0.2,12.4-3.3,25.8-12.7,34.6c-9.2,8.5-22.2,11.1-34.3,12
		c-12.8,0.6-26.2,0.6-38.1-4.7c-7.1-3-13.3-8.4-16.4-15.6c-3.9-8.9-4.2-19.2-2-28.6c2-8.4,7.5-16,15.2-19.8c8.1-4,17.2-5.2,26.2-5.6
		c20.7-0.4,41.5,0.8,61.9,4C540.8,180.3,540.5,188.2,540.5,196z"/>
</g>
</svg>
